<mxfile host="app.diagrams.net" modified="2023-02-26T15:46:45.173Z" agent="5.0 (Macintosh; Intel Mac OS X 10_15_7) AppleWebKit/605.1.15 (KHTML, like Gecko) Version/16.3 Safari/605.1.15" etag="kew1aavsO135t6oO9-UH" version="20.8.23" type="github">
  <diagram name="Page-1" id="bq267O4x0c_xgtczqqQH">
    <mxGraphModel dx="2547" dy="1693" grid="0" gridSize="10" guides="1" tooltips="1" connect="1" arrows="1" fold="1" page="1" pageScale="1" pageWidth="1169" pageHeight="827" math="0" shadow="0">
      <root>
        <mxCell id="0" />
        <mxCell id="1" parent="0" />
      </root>
    </mxGraphModel>
  </diagram>
</mxfile>
